<svg xmlns="http://www.w3.org/2000/svg" viewBox="0 0 1000 383.76"><defs><style>.cls-1{fill:#18202b;}</style></defs><g id="Capa_2" data-name="Capa 2"><path class="cls-1" d="M334.65,357.73l-21.11-14.29a3.71,3.71,0,0,0-3.39-.38l-23.73,9.29a3.67,3.67,0,0,1-4.86-4.43l7.07-24.49a3.7,3.7,0,0,0-.69-3.34l-16.17-19.7a3.66,3.66,0,0,1,2.71-6l25.48-.85a3.66,3.66,0,0,0,3-1.69l13.74-21.46a3.67,3.67,0,0,1,6.54.73l8.68,24a3.64,3.64,0,0,0,2.52,2.3l24.66,6.44a3.67,3.67,0,0,1,1.33,6.44l-20.12,15.66a3.66,3.66,0,0,0-1.4,3.1l1.5,25.45A3.67,3.67,0,0,1,334.65,357.73Z"/><path class="cls-1" d="M151.79,353.29l1.82-25.42a3.64,3.64,0,0,0-1.37-3.13l-19.91-15.91a3.67,3.67,0,0,1,1.41-6.42l24.74-6.13A3.66,3.66,0,0,0,161,294l9-23.85a3.66,3.66,0,0,1,6.54-.65L190,291.15a3.64,3.64,0,0,0,2.94,1.73l25.46,1.17a3.66,3.66,0,0,1,2.64,6l-16.42,19.5a3.65,3.65,0,0,0-.73,3.33l6.76,24.58a3.66,3.66,0,0,1-4.92,4.36l-23.61-9.58a3.67,3.67,0,0,0-3.4.33l-21.29,14A3.67,3.67,0,0,1,151.79,353.29Z"/><path class="cls-1" d="M64.21,192.71l22.93-11.14a3.65,3.65,0,0,0,2-2.74L93,153.62a3.67,3.67,0,0,1,6.27-2L116.92,170a3.66,3.66,0,0,0,3.24,1.07l25.15-4.15a3.66,3.66,0,0,1,3.83,5.34l-12,22.49a3.64,3.64,0,0,0,0,3.41l11.72,22.64a3.67,3.67,0,0,1-3.9,5.29l-25.1-4.47a3.68,3.68,0,0,0-3.25,1L98.69,240.8a3.66,3.66,0,0,1-6.24-2.07l-3.51-25.25a3.66,3.66,0,0,0-2-2.77L64.17,199.28A3.66,3.66,0,0,1,64.21,192.71Z"/><path class="cls-1" d="M159.48,36.57l21.11,14.29a3.68,3.68,0,0,0,3.39.37L207.72,42a3.66,3.66,0,0,1,4.86,4.42l-7.07,24.49a3.69,3.69,0,0,0,.69,3.35l16.17,19.7a3.67,3.67,0,0,1-2.71,6l-25.48.85a3.67,3.67,0,0,0-3,1.68L177.47,123.9a3.66,3.66,0,0,1-6.53-.73l-8.68-24a3.64,3.64,0,0,0-2.52-2.3l-24.66-6.44A3.67,3.67,0,0,1,133.75,84l20.11-15.66a3.67,3.67,0,0,0,1.41-3.11l-1.5-25.44A3.66,3.66,0,0,1,159.48,36.57Z"/><path class="cls-1" d="M342.34,41l-1.82,25.42a3.7,3.7,0,0,0,1.37,3.13L361.8,85.47a3.66,3.66,0,0,1-1.4,6.42L335.65,98a3.63,3.63,0,0,0-2.54,2.26l-9,23.86a3.66,3.66,0,0,1-6.54.64l-13.47-21.63a3.67,3.67,0,0,0-2.94-1.73l-25.46-1.17a3.66,3.66,0,0,1-2.64-6l16.42-19.5a3.68,3.68,0,0,0,.73-3.33l-6.76-24.58a3.67,3.67,0,0,1,4.91-4.37L312,52a3.67,3.67,0,0,0,3.39-.33l21.29-14A3.66,3.66,0,0,1,342.34,41Z"/><path class="cls-1" d="M429.93,201.59,407,212.73a3.63,3.63,0,0,0-2,2.74l-3.83,25.2a3.66,3.66,0,0,1-6.26,2L377.21,224.3a3.65,3.65,0,0,0-3.24-1.07l-25.14,4.15A3.67,3.67,0,0,1,345,222l12-22.48a3.67,3.67,0,0,0,0-3.41L345.3,173.5a3.66,3.66,0,0,1,3.9-5.29l25.09,4.46a3.63,3.63,0,0,0,3.25-1l17.91-18.14a3.67,3.67,0,0,1,6.24,2.07l3.51,25.25a3.67,3.67,0,0,0,2,2.77L430,195A3.66,3.66,0,0,1,429.93,201.59Z"/><path class="cls-1" d="M250.55,150l8.7,26.75a3.66,3.66,0,0,0,3.48,2.53h28.13a3.67,3.67,0,0,1,2.16,6.63l-22.76,16.54a3.67,3.67,0,0,0-1.33,4.1l8.69,26.75a3.67,3.67,0,0,1-5.64,4.1l-22.76-16.54a3.68,3.68,0,0,0-4.31,0l-22.75,16.54a3.66,3.66,0,0,1-5.64-4.1l8.69-26.75a3.67,3.67,0,0,0-1.33-4.1l-22.76-16.54a3.66,3.66,0,0,1,2.15-6.63H231.4a3.67,3.67,0,0,0,3.49-2.53L243.58,150A3.66,3.66,0,0,1,250.55,150Z"/><polygon class="cls-1" points="556.12 142.65 523.36 82.31 497.91 82.31 497.91 188.49 523.51 188.49 523.51 128.56 547.91 171.92 563.57 171.92 588.12 128.05 588.12 188.49 613.72 188.49 613.72 82.31 588.87 82.31 556.12 142.65"/><polygon class="cls-1" points="635.71 188.49 711.92 188.49 711.92 166.5 662.67 166.5 662.67 145.57 708.6 145.57 708.6 123.73 662.67 123.73 662.67 104.3 711.92 104.3 711.92 82.31 635.71 82.31 635.71 188.49"/><path class="cls-1" d="M807.7,88.56q-12.81-6.24-30.87-6.25h-45V188.49h45q18.06,0,30.87-6.25a44.35,44.35,0,0,0,19.58-18.15q6.78-11.9,6.78-28.76t-6.78-28.69A44.49,44.49,0,0,0,807.7,88.56Zm-10.24,69.36q-7.53,7.53-22.44,7.53H760V105.36H775q14.76,0,22.36,7.45T805,135.33Q805,150.39,797.46,157.92Z"/><polygon class="cls-1" points="914.16 188.49 893.52 159.04 913.59 130.26 895.83 130.26 883.65 148.81 871.63 130.26 853.87 130.26 873.84 159.07 853.21 188.49 871.05 188.49 883.69 169.35 896.32 188.49 914.16 188.49"/><polygon class="cls-1" points="556.98 274.82 527.38 204.09 497.03 204.09 545.04 310.52 568.14 310.52 616.15 204.09 586.71 204.09 556.98 274.82"/><polygon class="cls-1" points="707.39 224.32 707.39 204.09 624.21 204.09 624.21 227.49 673.72 227.49 624.21 290.14 624.21 310.52 709.51 310.52 709.51 287.13 657.73 287.13 707.39 224.32"/><polygon class="cls-1" points="758.12 204.09 729.89 204.09 729.89 310.52 805.68 310.52 805.68 286.97 758.12 286.97 758.12 204.09"/><path class="cls-1" d="M909.32,310.53h28.54L888.34,204.09H865.09L815.57,310.53H844l8.59-20.24h48.08Zm-33.06-77.6h.6l14.81,35.17H861.58Z"/></g></svg>